<svg xmlns="http://www.w3.org/2000/svg" width="22" height="16" viewBox="0 0 22 16" fill="none">
<path fill-rule="evenodd" clip-rule="evenodd" d="M10.7502 14C6.62871 14 3.07737 11.4318 1.55636 7.74832C3.02561 4.15628 6.63252 1.5 10.7502 1.5C14.8679 1.5 18.4748 4.15623 19.9441 7.74821C18.4231 11.4318 14.8717 14 10.7502 14ZM21.4525 7.48666C21.5203 7.66761 21.5138 7.85824 21.4481 8.0249C19.7812 12.3905 15.6278 15.5 10.7502 15.5C5.86964 15.5 1.71423 12.3868 0.0493479 8.01703C-0.0194647 7.83642 -0.0138801 7.64573 0.0509782 7.47872C1.65611 3.20831 5.87131 0 10.7502 0C15.6322 0 19.8496 3.21229 21.4525 7.48666ZM7.50024 7.75C7.50024 5.95507 8.95532 4.5 10.7502 4.5C12.5452 4.5 14.0002 5.95507 14.0002 7.75C14.0002 9.54493 12.5452 11 10.7502 11C8.95532 11 7.50024 9.54493 7.50024 7.75ZM10.7502 3C8.12689 3 6.00024 5.12665 6.00024 7.75C6.00024 10.3734 8.12689 12.5 10.7502 12.5C13.3736 12.5 15.5002 10.3734 15.5002 7.75C15.5002 5.12665 13.3736 3 10.7502 3Z" fill="#79747F"/>
</svg>